<?xml version="1.0" standalone="no"?>
<!DOCTYPE svg PUBLIC "-//W3C//DTD SVG 20010904//EN"
 "http://www.w3.org/TR/2001/REC-SVG-20010904/DTD/svg10.dtd">
<svg version="1.0" xmlns="http://www.w3.org/2000/svg"
     width="750.000000pt" height="250.000000pt" viewBox="0 0 750.000000 250.000000"
     preserveAspectRatio="xMidYMid meet">
  <g transform="translate(0.000000,250.000000) scale(0.100000,-0.100000)"
     fill="none" stroke="none">

    <!-- Left‐side logo icon -->
    <path fill="#3C68B2" d="M545 2025 c-52 -18 -111 -82 -125 -135 -8 -28 -10 -141 -8 -343 3
      -261 5 -306 20 -333 22 -40 81 -92 116 -101 15 -5 124 -8 242 -8 183 0 220 2
      246 17 44 24 91 81 103 125 15 52 14 596 0 648 -15 52 -82 119 -134 134 -60
      17 -410 14 -460 -4z"/>
    <path fill="#3C68B2" d="M1395 2025 c-53 -19 -111 -82 -125 -136 -7 -26 -10 -96 -8 -178 4
      -158 17 -197 87 -246 l43 -30 237 0 237 0 42 28 c70 46 86 89 90 248 2 85 -1
      152 -8 179 -15 57 -80 124 -135 139 -60 17 -410 14 -460 -4z"/>
    <path fill="#3C68B2" d="M1372 1293 c-44 -21 -89 -74 -101 -120 -15 -52 -14 -526 0 -578 15
      -52 82 -119 134 -134 52 -14 398 -14 450 0 52 15 119 82 134 134 17 63 15 519
      -4 581 -15 52 -49 91 -102 118 -47 24 -462 23 -511 -1z"/>
    <path fill="#3C68B2" d="M522 964 c-80 -40 -106 -90 -110 -219 -3 -59 1 -118 8 -145 15 -57
      80 -124 135 -139 52 -14 398 -14 450 0 55 15 120 82 135 139 7 27 11 86 8 146
      -3 91 -6 106 -33 149 -52 83 -74 90 -325 93 l-215 3 -53 -27z"/>

    <!-- “retroboard” text paths -->
    <path fill="white" d="M2440 1245 l0 -355 35 0 35 0 0 125 0 125 83 0 83 0 70 -125 69 -125
      37 0 c21 0 38 3 38 6 0 4 -31 62 -70 129 -38 67 -70 125 -70 129 0 3 6 6 13 6
      24 0 95 69 116 113 40 83 20 199 -45 262 -58 55 -95 65 -251 65 l-143 0 0
      -355z m307 272 c79 -42 109 -156 60 -228 -44 -65 -77 -79 -193 -79 l-104 0 0
      158 c0 87 3 162 8 166 14 15 195 1 229 -17z"/>
    <path fill="white" d="M3530 1475 l0 -125 -35 0 c-33 0 -35 -2 -35 -35 0 -33 2 -35 34 -35
      l34 0 3 -152 c4 -139 6 -156 26 -184 30 -42 72 -58 128 -50 53 8 59 16 44 50
      -11 23 -16 25 -54 19 -67 -9 -75 11 -75 179 l0 137 63 3 c62 3 62 3 65 36 l3
      32 -65 0 -66 0 0 125 0 125 -35 0 -35 0 0 -125z"/>
    <path fill="white" d="M4770 1245 l0 -355 134 0 c141 0 181 8 234 47 86 64 95 222 16 301
      l-34 34 25 32 c48 63 51 166 7 225 -10 14 -36 36 -58 48 -35 21 -53 23 -181
      23 l-143 0 0 -355z m254 285 c61 -14 90 -49 90 -110 0 -44 -5 -55 -32 -83 -32
      -31 -34 -32 -137 -35 l-105 -4 0 114 c0 63 3 118 7 121 9 10 131 8 177 -3z
      m27 -310 c55 -15 82 -51 86 -112 5 -63 -9 -94 -56 -125 -30 -20 -46 -23 -137
      -23 l-104 0 0 135 0 135 88 0 c48 0 103 -5 123 -10z"/>
    <path fill="white" d="M7170 1445 l0 -155 -46 33 c-40 28 -54 32 -107 32 -99 -1 -165 -45
      -206 -135 -66 -146 28 -317 180 -328 68 -5 118 10 153 45 l26 26 0 -37 c0 -35
      1 -36 35 -36 l35 0 0 355 0 355 -35 0 -35 0 0 -155z m-71 -182 c35 -26 71 -99
      71 -144 0 -48 -39 -119 -78 -142 -65 -38 -159 -18 -203 45 -30 41 -38 132 -16
      174 45 86 155 119 226 67z"/>
    <path fill="white" d="M3117 1346 c-160 -58 -205 -280 -80 -398 88 -84 235 -75 313 20 37
      45 37 55 4 71 -25 11 -29 9 -61 -28 -58 -69 -147 -74 -208 -13 -23 23 -55 78
      -55 96 0 3 84 7 188 8 l187 3 -3 45 c-9 111 -115 211 -222 210 -14 -1 -42 -7
      -63 -14z m129 -75 c35 -16 84 -71 84 -95 0 -3 -65 -6 -145 -6 -80 0 -145 4
      -145 9 0 20 48 75 80 92 44 24 74 24 126 0z"/>
    <path fill="white" d="M3977 1346 c-20 -8 -44 -19 -52 -26 -13 -10 -15 -9 -15 9 0 19 -5 22
      -32 19 l-33 -3 -3 -227 -2 -228 34 0 34 0 4 159 c3 143 5 162 24 188 29 39 85
      56 136 42 22 -5 41 -9 43 -7 1 2 6 17 9 34 7 30 6 32 -38 43 -55 14 -62 13
      -109 -3z"/>
    <path fill="white" d="M4358 1349 c-51 -15 -122 -80 -143 -131 -38 -93 -12 -215 58 -274 51
      -43 94 -57 164 -52 81 5 136 41 175 117 32 61 38 148 15 204 -45 105 -164 165
      -269 136z m109 -70 c64 -24 105 -86 105 -160 -1 -80 -44 -138 -120 -159 -75
      -20 -154 30 -182 115 -24 73 12 159 83 194 47 24 73 26 114 10z"/>
    <path fill="white" d="M5458 1349 c-51 -15 -122 -80 -143 -131 -38 -93 -12 -215 58 -274 51
      -43 94 -57 164 -52 81 5 136 41 175 117 32 61 38 148 15 204 -45 105 -164 165
      -269 136z m109 -70 c64 -24 105 -86 105 -160 -1 -80 -44 -138 -120 -159 -75
      -20 -154 30 -182 115 -24 73 12 159 83 194 47 24 73 26 114 10z"/>
    <path fill="white" d="M6010 1351 c-111 -34 -170 -115 -170 -233 1 -118 82 -215 189 -226
      72 -7 117 5 156 40 l35 30 0 -36 c0 -34 1 -36 35 -36 l35 0 0 230 0 230 -35 0
      c-33 0 -35 -2 -35 -34 l0 -34 -31 29 c-46 43 -117 58 -179 40z m114 -75 c60
      -25 102 -113 89 -188 -8 -56 -67 -118 -120 -127 -53 -10 -109 9 -145 48 -114
      127 21 332 176 267z"/>
    <path fill="white" d="M6567 1346 c-20 -8 -44 -19 -52 -26 -13 -10 -15 -9 -15 9 0 19 -5 22
      -32 19 l-33 -3 -3 -227 -2 -228 34 0 34 0 4 159 c3 143 5 162 24 188 29 39 85
      56 136 42 22 -5 41 -9 43 -7 1 2 6 17 9 34 7 30 6 32 -38 43 -55 14 -62 13
      -109 -3z"/>
  </g>
</svg>
